<svg width="66" height="65" viewBox="0 0 66 65" fill="none" xmlns="http://www.w3.org/2000/svg">
<g id="yFNX1M.tif_1_">
<g id="Group">
<path id="Vector" d="M19.0409 9.57961C20.8313 9.57961 22.5148 9.57961 24.1983 9.57961C24.9465 9.57961 25.7215 9.57961 26.4697 9.57961C28.848 9.57961 30.2643 11.4502 29.7031 13.7483C29.6764 13.8552 29.6497 13.9621 29.623 14.0957C30.1574 14.1759 30.6651 14.0155 31.1461 13.9621C36.1699 13.4543 40.6593 14.8172 44.5607 17.9971C48.1683 20.9366 50.306 24.7846 51.0008 29.3809C51.4284 32.1867 51.1879 34.9658 50.2526 37.6648C50.0655 38.1725 50.1724 38.413 50.6267 38.6535C52.8179 39.8827 54.9825 41.1387 57.147 42.3946C57.4676 42.5817 57.7883 42.6619 58.1624 42.6619C60.2735 42.6619 62.3845 42.6619 64.4956 42.6351C64.9766 42.6351 65.0835 42.7688 65.0835 43.223C65.0835 44.7729 65.0835 44.7729 63.587 44.7729C61.6363 44.7729 59.6856 44.7729 57.7081 44.7729C57.2271 44.7729 56.7996 44.666 56.372 44.4255C52.7912 42.3412 49.1837 40.2569 45.5762 38.1992C45.309 38.0389 45.0417 37.8786 44.7478 37.745C44.2134 37.5045 43.5987 37.6648 43.3582 38.1458C43.0643 38.6802 43.1979 39.1612 43.6522 39.5086C43.9996 39.7759 44.4004 39.9896 44.7745 40.2034C45.6029 40.6844 46.4313 41.1654 47.2597 41.6197C47.7674 41.9136 48.0881 42.3412 47.901 42.9291C47.7407 43.5437 47.2597 43.7308 46.6718 43.704C43.0376 43.704 39.3766 43.704 35.7424 43.704C35.5553 43.704 35.395 43.704 35.2079 43.704C34.5399 43.7575 34.0856 44.2118 34.0856 44.7997C34.1123 45.3341 34.5933 45.8151 35.2079 45.8418C35.6355 45.8685 36.063 45.8418 36.4639 45.8418C38.7887 45.8418 41.0868 45.8418 43.4117 45.8418C44.2668 45.8418 44.7478 46.2159 44.7478 46.884C44.7745 47.5788 44.2935 47.9796 43.385 47.9796C40.3386 47.9796 37.2923 47.9796 34.2459 47.9796C33.5244 47.9796 33.0434 48.4072 33.0167 49.0218C33.0167 49.6097 33.5244 50.064 34.2192 50.0907C34.3795 50.0907 34.5399 50.0907 34.6735 50.0907C37.6129 50.0907 40.5524 50.0907 43.4651 50.0907C44.1866 50.0907 44.6409 50.4381 44.7211 51.026C44.8012 51.7207 44.2935 52.2285 43.4651 52.2285C40.8731 52.2285 38.3077 52.2285 35.7156 52.2285C35.5553 52.2285 35.395 52.2285 35.2614 52.2285C34.5399 52.2552 34.0589 52.6827 34.0589 53.2974C34.0589 53.8852 34.5933 54.3395 35.2881 54.3663C37.7733 54.3663 40.2584 54.3663 42.7703 54.3663C42.9841 54.3663 43.2246 54.3663 43.4384 54.3663C44.2668 54.3663 44.7478 54.7671 44.7478 55.4619C44.7478 56.1032 44.2668 56.504 43.4651 56.504C41.5678 56.504 39.6973 56.504 37.8 56.504C37.6129 56.504 37.4526 56.504 37.2655 56.504C36.6509 56.5575 36.1967 57.0385 36.2234 57.5997C36.2501 58.1074 36.7044 58.5617 37.2655 58.6418C37.4259 58.6685 37.5862 58.6418 37.7198 58.6418C42.61 58.6418 47.5002 58.6418 52.3904 58.6418C52.8179 58.6418 53.2188 58.5884 53.5929 58.3479C55.9712 56.7713 58.59 56.2101 61.4493 56.4773C62.438 56.5842 63.4534 56.504 64.4422 56.4773C64.843 56.4773 65.0301 56.5575 65.0301 57.0118C65.0301 58.6151 65.0568 58.6151 63.4534 58.6151C62.6785 58.6151 61.8768 58.6953 61.1286 58.5884C58.8038 58.3212 56.6927 58.8823 54.742 60.1383C53.967 60.646 53.1386 60.7529 52.2033 60.7529C47.2864 60.7262 42.3695 60.7529 37.4526 60.7262C35.1545 60.7262 33.7382 59.0159 34.139 56.7713C34.1925 56.4773 34.139 56.3437 33.8718 56.2101C32.0814 55.2481 31.547 53.9387 32.1883 51.988C32.2685 51.7207 32.215 51.5871 32.0012 51.4535C31.7073 51.2397 31.4134 50.9725 31.3332 50.6518C31.1461 49.9838 30.6384 49.9036 30.0772 49.7967C22.5415 48.6744 16.2885 42.4481 15.086 34.9391C14.7921 33.0151 14.7119 31.0911 15.0593 29.1671C15.1394 28.7128 14.9257 28.6861 14.605 28.6861C12.7077 28.6861 10.8372 28.6861 8.93986 28.6861C8.43214 28.6861 7.97786 28.6059 7.52358 28.3654C7.12274 28.1249 6.66847 27.9646 6.26763 27.7241C4.7979 26.8155 3.22128 26.2811 1.48433 26.5483C1.0835 26.6017 0.949885 26.4681 0.949885 26.0406C0.923162 24.4105 0.923162 24.5174 2.49978 24.3838C4.02295 24.2502 5.35907 24.7312 6.5883 25.5061C7.97786 26.3612 9.44759 26.6819 11.0777 26.575C12.4405 26.4949 13.7766 26.5483 15.1394 26.575C15.4868 26.575 15.6472 26.4681 15.7541 26.1475C16.4756 23.983 17.5712 22.0589 19.0142 20.2953C18.9607 20.1082 18.747 20.1349 18.6401 20.0815C18.1323 19.8143 17.9186 19.4134 18.0255 18.879C18.1323 18.3713 18.5065 17.9704 19.0142 18.0506C20.7244 18.3445 22.0338 17.5696 23.2898 16.5541C23.557 16.3404 23.8777 16.18 24.3319 15.8861C22.7019 15.8861 21.2321 15.8861 19.7891 15.8861C19.5754 15.8861 19.3349 15.8861 19.1211 15.8861C18.453 15.8594 17.9987 15.4318 17.9987 14.8172C17.9987 14.2026 18.453 13.7483 19.1211 13.7483C21.2321 13.7483 23.3432 13.7483 25.4543 13.7483C25.7749 13.7483 26.0689 13.7483 26.3896 13.7483C27.0843 13.7216 27.5921 13.2406 27.5921 12.6794C27.5921 12.0648 27.1111 11.6372 26.3628 11.6372C23.263 11.6372 20.1365 11.6372 17.0367 11.6372C15.9946 11.6372 15.9946 11.6372 15.8075 12.626C15.1662 16.0731 12.4138 18.2109 8.88642 18.0239C7.97786 17.9704 8.48558 17.2756 8.45886 16.9283C8.43214 16.6076 8.0313 15.8861 8.88642 15.9128C10.0622 15.9395 11.1845 15.7257 12.1465 14.9508C13.2154 14.0957 13.6964 12.9733 13.7499 11.664C13.7499 11.4235 13.7766 11.183 13.7499 10.9424C13.6697 10.2209 14.0171 9.79339 14.605 9.446C15.7273 8.83138 16.7962 8.19005 17.8918 7.54871C18.3194 7.28149 18.5599 6.90738 18.453 6.37293C18.3461 5.89193 18.0255 5.65143 17.5979 5.54454C17.2505 5.46437 16.9566 5.65143 16.6626 5.81176C13.0551 7.8961 9.42087 9.98044 5.81335 12.0915C5.06512 12.5191 4.34362 12.7863 3.48851 12.7061C2.767 12.6527 2.07222 12.6794 1.35072 12.7061C1.05677 12.7061 0.869718 12.626 0.923162 12.3053C0.923162 12.2786 0.923162 12.2518 0.923162 12.2518C0.949885 10.6485 0.949885 10.5951 2.60667 10.6752C3.72901 10.7287 4.66429 10.4347 5.59957 9.87356C8.93986 7.86938 12.3336 5.97209 15.7006 4.02136C17.8651 2.76541 20.2434 3.80759 20.6977 6.15915C20.8847 7.20132 20.5641 8.08316 19.8693 8.85811C19.6288 9.09861 19.3883 9.28566 19.0409 9.57961ZM37.2121 41.593C37.8 41.593 38.4146 41.5395 39.0025 41.593C40.1248 41.6999 40.6058 40.7913 41.3273 40.2569C41.4877 40.1232 41.3541 39.9629 41.3006 39.8293C40.6326 37.7717 41.6213 36.008 43.7323 35.527C44.1599 35.4468 44.2935 35.2598 44.4004 34.8589C44.8012 33.2556 44.8814 31.6523 44.6142 30.0489C43.5453 23.6623 37.4259 19.3065 31.0927 20.4022C23.1829 21.765 18.934 30.4498 22.7286 37.5312C24.6259 41.0585 27.6455 43.036 31.6004 43.5971C31.9478 43.6506 32.1883 43.5971 32.4021 43.223C33.0167 42.1274 34.0054 41.593 35.2614 41.593C35.9294 41.593 36.5708 41.593 37.2121 41.593ZM32.9632 18.104C36.7845 18.104 40.1248 19.4134 42.7971 22.1124C46.2977 25.6665 47.5536 29.9688 46.6184 34.8857C46.3779 36.1683 46.3779 36.1416 47.5002 36.8364C48.0614 37.2105 48.2484 37.0235 48.4088 36.4623C48.9699 34.4314 49.1837 32.4005 48.9699 30.2894C48.5958 26.9224 47.3131 23.9295 45.0685 21.4176C40.5257 16.3404 33.7916 14.6836 27.4317 17.0351C19.9227 19.7875 15.5403 27.9913 17.5712 35.7408C19.2814 42.2878 23.5837 46.2159 30.1574 47.7124C30.7987 47.8727 31.3599 47.8994 31.6271 47.1245C31.6806 46.9909 31.8409 46.9107 31.9211 46.7771C32.0547 46.5901 32.4021 46.5099 32.2952 46.1358C32.1616 45.7349 31.8409 45.7617 31.547 45.7349C28.0998 45.3608 25.187 43.8911 22.8622 41.3257C19.9762 38.1725 18.7737 34.4581 19.2814 30.236C20.1098 23.3416 25.9887 18.1308 32.9632 18.104Z" fill="#EC255A"/>
<path id="Vector_2" d="M9.52802 52.3354C8.85996 52.8164 8.29879 53.244 7.7109 53.6715C6.56184 54.5266 5.4395 55.3818 4.29044 56.2369C3.96978 56.4774 3.91633 56.5843 4.29044 56.8515C6.0274 58.1342 7.73763 59.4168 9.47458 60.7262C9.68836 60.5926 9.58147 60.3788 9.58147 60.2185C9.60819 58.9358 9.87541 58.6686 11.1581 58.6686C15.7009 58.6686 20.217 58.6686 24.7598 58.6686C25.9355 58.6686 27.1113 58.6686 28.2871 58.6686C28.6612 58.6686 28.7681 58.7755 28.7948 59.1496C28.8483 60.8064 28.8483 60.8064 27.1915 60.8064C22.2479 60.8064 17.3309 60.8064 12.3873 60.8064C11.8261 60.8064 11.6124 60.94 11.6925 61.5012C11.746 61.9287 11.6925 62.3563 11.6925 62.7571C11.7193 63.2648 11.5589 63.6657 11.0779 63.9062C10.6236 64.12 10.2228 63.9863 9.84869 63.6924C7.52385 61.9554 5.199 60.1918 2.87416 58.4548C2.41988 58.1342 1.9656 57.8135 1.53804 57.4661C0.869984 56.9317 0.843262 56.1834 1.51132 55.6757C4.31717 53.5646 7.12301 51.4536 9.92886 49.3692C10.303 49.102 10.7038 49.0218 11.1046 49.2356C11.5322 49.4494 11.6925 49.8235 11.6925 50.2778C11.6925 50.7053 11.746 51.1329 11.6925 51.5337C11.6124 52.2018 11.8796 52.3087 12.4942 52.3087C17.6516 52.282 22.809 52.3087 27.9664 52.282C28.5811 52.282 28.8216 52.3889 28.7948 53.0569C28.7414 54.4198 28.7681 54.4197 27.3785 54.4197C22.0074 54.4197 16.6094 54.4197 11.2383 54.4197C9.82197 54.4197 9.60819 54.206 9.55474 52.763C9.55474 52.6294 9.55474 52.5225 9.52802 52.3354Z" fill="#EC255A"/>
<path id="Vector_3" d="M56.56 3.21874C56.4264 5.3298 56.4264 5.3298 54.3955 5.3298C49.3183 5.3298 44.2678 5.30308 39.1905 5.35653C38.4957 5.35653 38.3354 5.14275 38.3621 4.50141C38.4156 3.19202 38.3888 3.19202 39.6982 3.19202C44.2945 3.19202 48.8907 3.19202 53.5137 3.19202C54.5024 3.19202 54.3688 3.32563 54.3688 2.28346C54.3688 1.98951 54.3688 1.69557 54.3688 1.42834C54.3421 0.893895 54.4222 0.412893 54.9567 0.118947C55.4911 -0.174998 55.9187 0.0922251 56.3463 0.412893C58.2703 1.8559 60.1943 3.29891 62.0916 4.74191C62.8665 5.30308 63.6147 5.86425 64.3897 6.45214C65.2715 7.1202 65.2448 7.86843 64.3897 8.50976C61.6907 10.5407 58.9918 12.5448 56.2928 14.5757C55.8653 14.8964 55.4644 15.0835 54.9567 14.8162C54.4757 14.5757 54.3955 14.1215 54.3688 13.6404C54.3421 13.0258 54.6627 12.2242 54.2352 11.8501C53.8878 11.5561 53.0861 11.7432 52.4982 11.7432C48.0089 11.7432 43.5195 11.7432 39.0302 11.7432C38.5225 11.7432 38.3621 11.6096 38.3621 11.0751C38.3888 9.57865 38.3621 9.57866 39.8586 9.57866C44.8289 9.57866 49.826 9.57866 54.7964 9.57866C56.2928 9.57866 56.5066 9.79243 56.5066 11.2622C56.5066 11.3691 56.5066 11.4759 56.5333 11.6897C57.1479 11.2354 57.7091 10.8079 58.2703 10.3803C59.446 9.49849 60.6218 8.61665 61.7976 7.73481C61.9847 7.6012 62.2519 7.46759 61.9045 7.20037C60.1408 5.91769 58.4039 4.58158 56.56 3.21874Z" fill="#EC255A"/>
<path id="Vector_4" d="M32.964 18.1026C26.0162 18.1293 20.1373 23.3402 19.3089 30.2078C18.8012 34.43 19.9769 38.1444 22.8362 41.2976C25.1611 43.8629 28.0738 45.3327 31.521 45.7068C31.8149 45.7335 32.1623 45.7068 32.2692 46.1076C32.3761 46.4817 32.0287 46.5352 31.8951 46.749C31.8149 46.8826 31.6279 46.9627 31.6012 47.0963C31.3339 47.8713 30.7728 47.8446 30.1314 47.6842C23.5577 46.1878 19.2554 42.2596 17.5452 35.7126C15.5143 27.9632 19.9235 19.7594 27.4058 17.007C33.7657 14.6822 40.5264 16.3122 45.0425 21.3895C47.2872 23.9014 48.5698 26.8675 48.944 30.2613C49.1845 32.3723 48.944 34.4032 48.3828 36.4341C48.2225 36.9953 48.0621 37.1556 47.4742 36.8082C46.3519 36.1135 46.3519 36.1402 46.5924 34.8575C47.501 29.9406 46.2717 25.6383 42.7711 22.0842C40.1256 19.412 36.7853 18.1026 32.964 18.1026Z" fill="white"/>
<path id="Vector_5" d="M32.8536 33.0674C32.2122 33.0674 31.5709 33.0674 30.9296 33.0674C29.1125 33.0407 27.6962 31.6244 27.6962 29.8607C27.6962 28.097 29.1392 26.7075 30.9563 26.6808C31.9717 26.6808 31.9717 26.6808 31.9717 25.6653C31.9717 24.543 31.9717 24.543 33.0941 24.543C34.1095 24.543 34.1095 24.543 34.1095 25.5584C34.1095 25.5851 34.1095 25.6119 34.1095 25.6119C34.1095 26.654 34.1095 26.654 35.1517 26.654C36.7283 26.6808 38.011 27.7496 38.3317 29.2728C38.4118 29.7004 38.3584 29.9142 37.8507 29.8607C37.5834 29.834 37.3162 29.834 37.049 29.8607C36.5947 29.8874 36.2206 29.8607 36.0335 29.2995C35.8999 28.9254 35.4991 28.7918 35.0983 28.7918C33.7087 28.7918 32.3459 28.7918 30.9563 28.7918C30.2615 28.7918 29.834 29.2194 29.8072 29.834C29.8072 30.4753 30.2615 30.9029 30.983 30.9029C32.3459 30.9029 33.682 30.9029 35.0448 30.9029C36.9154 30.9029 38.3317 32.3192 38.3317 34.1096C38.3317 35.9 36.8887 37.2895 35.0181 37.2895C34.0561 37.2895 34.0561 37.2895 34.0561 38.2248C34.0561 39.4006 34.0561 39.4273 32.8803 39.4006C31.7847 39.4006 31.945 39.5609 31.9183 38.4653C31.9183 37.3162 31.9183 37.3162 30.7425 37.2895C29.2461 37.2361 27.9099 36.0603 27.6694 34.6173C27.616 34.2699 27.6694 34.0561 28.097 34.1096C28.3909 34.1363 28.6849 34.1363 28.9521 34.1096C29.4064 34.0828 29.7805 34.1096 29.9676 34.6707C30.1012 35.0448 30.502 35.1785 30.9028 35.1785C32.2924 35.1785 33.6552 35.1785 35.0448 35.1785C35.7396 35.1785 36.1671 34.7509 36.1939 34.1363C36.1939 33.495 35.7396 33.0674 35.0181 33.0674C34.3233 33.0407 33.6018 33.0674 32.8536 33.0674Z" fill="#EC255A"/>
<path id="Vector_6" d="M25.5636 31.9451C25.5636 33.0408 25.5636 33.0408 24.4412 33.0408C23.4258 33.0408 23.4258 33.0408 23.4258 32.0253C23.4258 30.9297 23.4258 30.9297 24.5481 30.9297C25.5636 30.9297 25.5636 30.9297 25.5636 31.9451Z" fill="#EC255A"/>
<path id="Vector_7" d="M41.565 33.0681C40.4961 33.0681 40.4961 33.0681 40.4961 31.8389C40.4961 30.957 40.4961 30.957 41.7788 30.957C42.6339 30.957 42.6606 30.957 42.6339 32.2664C42.6339 33.2017 42.7942 33.0414 41.565 33.0681Z" fill="#EC255A"/>
</g>
</g>
</svg>
