<svg width="21" height="20" viewBox="0 0 21 20" fill="none" xmlns="http://www.w3.org/2000/svg">
<g id="heroicons-mini/check-circle">
<path id="Subtract" fill-rule="evenodd" clip-rule="evenodd" d="M10.5 18C14.9183 18 18.5 14.4183 18.5 10C18.5 5.58172 14.9183 2 10.5 2C6.08172 2 2.5 5.58172 2.5 10C2.5 14.4183 6.08172 18 10.5 18ZM14.3566 8.19113C14.6002 7.85614 14.5261 7.38708 14.1911 7.14345C13.8561 6.89982 13.3871 6.97388 13.1434 7.30887L9.65969 12.099L7.78033 10.2197C7.48744 9.92678 7.01256 9.92678 6.71967 10.2197C6.42678 10.5126 6.42678 10.9874 6.71967 11.2803L9.21967 13.7803C9.37477 13.9354 9.58999 14.0149 9.80867 13.9977C10.0273 13.9805 10.2275 13.8685 10.3566 13.6911L14.3566 8.19113Z" fill="#FF3D00"/>
</g>
</svg>
