<svg width="21" height="20" viewBox="0 0 21 20" fill="none" xmlns="http://www.w3.org/2000/svg">
<g id="Frame" clip-path="url(#clip0_1880_3840)">
<g id="Group">
<path id="Vector" d="M9.42977 0C9.84621 0 10.2632 0 10.6796 0C10.9176 0.0287019 11.1561 0.053229 11.393 0.0871494C13.5394 0.391389 15.4238 1.26341 16.9664 2.78774C19.5688 5.35943 20.5515 8.48063 19.8251 12.0611C19.2046 15.1207 17.4204 17.3735 14.6812 18.865C14.0983 19.1823 13.482 19.4239 12.8364 19.6034C12.8364 17.1356 12.8364 14.6797 12.8364 12.2093C13.555 12.2093 14.2564 12.2093 14.9724 12.2093C15.0804 11.3753 15.1868 10.5539 15.2964 9.70646C14.4573 9.70646 13.6469 9.70646 12.8369 9.70646C12.8369 9.04057 12.8093 8.39556 12.8463 7.75473C12.8735 7.27984 13.1344 7.01839 13.6072 6.94951C13.9652 6.89733 14.3331 6.91246 14.6968 6.90254C14.916 6.8968 15.1357 6.9015 15.3564 6.9015C15.3564 6.1422 15.3564 5.40952 15.3564 4.65023C14.8873 4.62466 14.4276 4.57665 13.9683 4.57978C13.4893 4.58291 12.9977 4.57613 12.5337 4.67632C11.1837 4.96856 10.3263 6.02114 10.2553 7.43431C10.2214 8.10959 10.2376 8.78748 10.2313 9.46432C10.2308 9.54051 10.2313 9.61618 10.2313 9.71429C9.50596 9.71429 8.80668 9.71429 8.10061 9.71429C8.10061 10.5576 8.10061 11.3785 8.10061 12.2223C8.81659 12.2223 9.51587 12.2223 10.2167 12.2223C10.2167 14.8264 10.2167 17.4064 10.2167 19.9859C10.1828 19.9917 10.164 19.9963 10.1447 19.9974C10.0925 19.999 10.0403 20 9.98867 19.9995C8.54419 19.9849 7.15554 19.701 5.85508 19.0685C2.76154 17.565 0.87504 15.1207 0.210721 11.7427C0.138184 11.3743 0.105829 10.998 0.0546875 10.6249C0.0546875 10.2085 0.0546875 9.79152 0.0546875 9.37508C0.0703431 9.24723 0.0880861 9.11937 0.101654 8.991C0.33701 6.82948 1.16519 4.92681 2.62429 3.31429C4.16793 1.60783 6.07843 0.544814 8.3511 0.150815C8.70857 0.0887149 9.07021 0.049576 9.42977 0Z" fill="#5C6F94"/>
</g>
</g>
<defs>
<clipPath id="clip0_1880_3840">
<rect width="20.0031" height="20" fill="white" transform="translate(0.0546875)"/>
</clipPath>
</defs>
</svg>
