<svg width="20" height="20" viewBox="0 0 20 20" fill="none" xmlns="http://www.w3.org/2000/svg">
<g id="Frame" clip-path="url(#clip0_1880_3843)">
<g id="Group">
<path id="Vector" d="M19.9964 5.90581C19.9964 8.58669 19.9964 11.2676 19.9964 13.9484C19.9854 14.0182 19.9717 14.0875 19.9642 14.1577C19.9219 14.5511 19.9019 14.948 19.8361 15.3375C19.6241 16.5921 19.0881 17.6794 18.125 18.534C17.0812 19.4599 15.8246 19.8294 14.4646 19.9214C13.9928 19.9536 13.5199 19.9743 13.0477 20.0002C11.0439 20.0002 9.04011 20.0002 7.03631 20.0002C6.91406 19.9896 6.79181 19.9724 6.66956 19.9693C5.86945 19.9489 5.07091 19.9175 4.28882 19.7255C2.64472 19.322 1.42144 18.3863 0.693422 16.8444C0.24047 15.8852 0.103723 14.854 0.0927518 13.807C0.0704177 11.6543 0.0523937 9.50161 0.0606221 7.34852C0.0645403 6.36817 0.0747278 5.38272 0.286314 4.41687C0.661684 2.70655 1.59501 1.42253 3.19445 0.663565C4.14071 0.214532 5.15789 0.0813113 6.19075 0.0566262C8.94764 -0.00880884 11.7049 -0.0409386 14.4606 0.0926742C15.2635 0.131465 16.0487 0.28702 16.7853 0.620465C18.6148 1.44957 19.5767 2.91931 19.8772 4.86395C19.9309 5.20915 19.9576 5.55865 19.9964 5.90581ZM10.0377 18.2335C10.0381 18.2233 10.0381 18.2131 10.0385 18.2025C10.5655 18.2025 11.0929 18.2182 11.6191 18.1994C12.7554 18.1586 13.9007 18.1727 15.0253 18.0305C16.5624 17.8365 17.6007 16.9494 17.9769 15.4198C18.1274 14.8077 18.1799 14.1596 18.1904 13.5268C18.2245 11.5105 18.2324 9.49338 18.2202 7.47625C18.2155 6.67144 18.1759 5.86154 18.076 5.06339C17.8738 3.45141 16.8727 2.36292 15.2772 2.04358C14.5939 1.90683 13.8835 1.86647 13.1845 1.85629C11.3245 1.82886 9.46368 1.82416 7.60328 1.8461C6.71462 1.85668 5.81577 1.87862 4.94121 2.01889C3.43934 2.26026 2.44136 3.15127 2.10282 4.65393C1.95158 5.3263 1.90887 6.03198 1.89319 6.72434C1.85636 8.34376 1.84618 9.96435 1.86342 11.5842C1.87517 12.695 1.90613 13.8097 2.01231 14.9147C2.11849 16.0212 2.6361 16.933 3.60783 17.5333C4.25434 17.9325 4.97961 18.0944 5.72683 18.1214C7.16326 18.1743 8.60087 18.1982 10.0377 18.2335Z" fill="#5C6F94"/>
<path id="Vector_2" d="M10.0299 15.1434C7.18643 15.1258 4.88562 12.8121 4.90639 9.99169C4.92755 7.14624 7.24246 4.84936 10.0628 4.87522C12.9138 4.90147 15.2048 7.21403 15.1734 10.034C15.1417 12.8798 12.8456 15.1611 10.0299 15.1434ZM6.71545 10.0093C6.71584 11.8517 8.19656 13.3328 10.0385 13.3344C11.8817 13.3359 13.3632 11.8591 13.3679 10.0156C13.373 8.16578 11.8856 6.67762 10.035 6.68075C8.19421 6.6835 6.71467 8.16656 6.71545 10.0093Z" fill="#5C6F94"/>
<path id="Vector_3" d="M16.571 4.67712C16.5683 5.34558 16.0307 5.87494 15.3611 5.86867C14.7071 5.86279 14.1773 5.32285 14.1797 4.66537C14.182 4.00671 14.7126 3.47813 15.3728 3.47657C16.0448 3.475 16.5738 4.00514 16.571 4.67712Z" fill="#5C6F94"/>
</g>
</g>
<defs>
<clipPath id="clip0_1880_3843">
<rect width="19.9377" height="20" fill="white" transform="translate(0.0585938)"/>
</clipPath>
</defs>
</svg>
