<svg width="20" height="20" viewBox="0 0 20 20" fill="none" xmlns="http://www.w3.org/2000/svg">
<g id="Frame" clip-path="url(#clip0_1880_3848)">
<g id="QADLbU.tif_1_">
<g id="Group">
<path id="Vector" d="M7.07812 19.9882C7.07812 15.542 7.07812 11.1125 7.07812 6.6653C8.39421 6.6653 9.70053 6.6653 11.0381 6.6653C11.0381 7.25402 11.0381 7.84372 11.0381 8.45978C11.0928 8.42952 11.1182 8.42464 11.1279 8.40901C12.0115 6.99334 13.3276 6.37435 14.9551 6.33823C15.866 6.31773 16.7545 6.43098 17.5883 6.82835C18.669 7.34287 19.2753 8.24011 19.6122 9.35117C19.8865 10.2533 19.9783 11.1847 19.9851 12.119C20.0037 14.6809 19.9959 17.2428 19.9978 19.8047C19.9978 19.8515 19.991 19.8984 19.9861 19.958C18.6095 19.958 17.2465 19.958 15.8465 19.958C15.8465 19.8632 15.8465 19.7695 15.8465 19.6758C15.8465 17.6265 15.8563 15.5762 15.8406 13.5269C15.8358 12.903 15.8065 12.2723 15.702 11.6592C15.4726 10.3148 14.5695 9.81297 13.2729 9.98675C12.1101 10.143 11.4813 10.8283 11.3173 12.0693C11.2578 12.5193 11.2246 12.9753 11.2226 13.4293C11.2129 15.5118 11.2187 17.5933 11.2187 19.6758C11.2187 19.7734 11.2187 19.8701 11.2187 19.9882C9.83917 19.9882 8.47036 19.9882 7.07812 19.9882Z" fill="#5C6F94"/>
<path id="Vector_2" d="M4.46189 19.9967C3.08039 19.9967 1.72427 19.9967 0.347656 19.9967C0.347656 15.5554 0.347656 11.12 0.347656 6.66406C1.70963 6.66406 3.07746 6.66406 4.46189 6.66406C4.46189 11.1024 4.46189 15.5379 4.46189 19.9967Z" fill="#5C6F94"/>
<path id="Vector_3" d="M4.79875 2.37161C4.8339 3.65646 3.76287 4.79778 2.49658 4.82805C1.1473 4.85831 0.0381947 3.81072 -0.00281089 2.46534C-0.0428402 1.15804 1.0194 0.040153 2.34037 0.00110002C3.66621 -0.0389293 4.76165 1.01843 4.79875 2.37161Z" fill="#5C6F94"/>
</g>
</g>
</g>
<defs>
<clipPath id="clip0_1880_3848">
<rect width="20.0059" height="20" fill="white" transform="translate(-0.00390625)"/>
</clipPath>
</defs>
</svg>
