<svg width="94" height="28" viewBox="0 0 94 28" fill="none" xmlns="http://www.w3.org/2000/svg">
<g id="Frame" clip-path="url(#clip0_1880_3829)">
<g id="Group">
<path id="Vector" d="M27.6805 9.62659L16.5694 0.736233C15.3433 -0.245411 13.5985 -0.245411 12.3724 0.736233L1.26132 9.62659C0.463039 10.2637 0 11.2287 0 12.2492V24.6402C0 26.496 1.50395 28 3.35981 28H25.582C27.4379 28 28.9418 26.496 28.9418 24.6402V12.2492C28.9418 11.2287 28.4769 10.2637 27.6805 9.62659ZM14.4709 24.3235H3.67468V12.4011L14.4709 3.76451V24.3235Z" fill="#5C6F94"/>
</g>
<g id="Group_2">
<path id="Vector_2" d="M49.809 3.41016H54.9611L47.02 25.1468H42.017L34.0547 3.41016H39.3984L44.6356 18.7174L49.809 3.41016Z" fill="#5C6F94"/>
<path id="Vector_3" d="M58.0944 2.51562C59.6272 2.51562 60.862 3.75042 60.862 5.24069C60.862 6.73096 59.6272 7.96576 58.0944 7.96576C56.6254 7.96576 55.3906 6.73096 55.3906 5.24069C55.3906 3.75042 56.6254 2.51562 58.0944 2.51562ZM55.7951 25.1464V9.90311H60.4575V25.1464H55.7951Z" fill="#5C6F94"/>
<path id="Vector_4" d="M63.0117 25.1464V2.94141H67.589V11.3508C68.2277 10.3928 69.9095 9.54117 71.9959 9.54117C76.4029 9.54117 79.0853 12.9049 79.0853 17.4822C79.0853 22.1446 76.0835 25.4871 71.8256 25.4871C69.8031 25.4871 68.249 24.5929 67.5251 23.4433V25.1677H63.0117V25.1464ZM70.974 13.7352C69.1644 13.7352 67.5038 14.9274 67.5038 17.5035C67.5038 20.0156 69.1644 21.3143 70.974 21.3143C72.7836 21.3143 74.4016 20.0582 74.4016 17.5035C74.4016 14.9274 72.7836 13.7352 70.974 13.7352Z" fill="#5C6F94"/>
<path id="Vector_5" d="M82.8288 2.51562C84.3616 2.51562 85.5964 3.75042 85.5964 5.24069C85.5964 6.73096 84.3616 7.96576 82.8288 7.96576C81.3598 7.96576 80.125 6.73096 80.125 5.24069C80.125 3.75042 81.3598 2.51562 82.8288 2.51562ZM80.5295 25.1464V9.90311H85.1919V25.1464H80.5295Z" fill="#5C6F94"/>
<path id="Vector_6" d="M90.6843 19.1211C92.4087 19.1211 93.8351 20.5262 93.8351 22.2507C93.8351 23.9325 92.3874 25.4015 90.6843 25.4015C88.9598 25.4015 87.5547 23.9325 87.5547 22.2507C87.5547 20.5475 88.9598 19.1211 90.6843 19.1211Z" fill="#5C6F94"/>
</g>
</g>
<defs>
<clipPath id="clip0_1880_3829">
<rect width="93.8358" height="28" fill="white"/>
</clipPath>
</defs>
</svg>
