<svg width="105" height="36" viewBox="0 0 105 36" fill="none" xmlns="http://www.w3.org/2000/svg">
<g id="logo-mini" clip-path="url(#clip0_1891_20311)">
<path id="Vector" d="M31.6823 36.0015H5.41884C2.43413 36.0015 0 33.5674 0 30.5827V15.9392C0 14.2779 0.743762 12.742 2.0381 11.7085L15.165 1.19924C17.1548 -0.394538 19.9463 -0.394538 21.9361 1.19924L35.0631 11.7085C36.3574 12.742 37.1012 14.2875 37.1012 15.9392V30.5827C37.1012 33.5674 34.667 36.0015 31.6823 36.0015ZM18.5554 2.90892C17.9952 2.90892 17.4349 3.09245 16.9809 3.4595L3.84438 13.9688C3.24551 14.4517 2.89777 15.1665 2.89777 15.9392V30.5827C2.89777 31.9736 4.0279 33.1037 5.41884 33.1037H31.6823C33.0732 33.1037 34.2034 31.9736 34.2034 30.5827V15.9392C34.2034 15.1665 33.8556 14.4517 33.2568 13.9688L20.1299 3.4595C19.6662 3.09245 19.106 2.90892 18.5554 2.90892ZM26.8527 19.0688L29.026 16.5574L27.0459 14.8477L23.385 19.0785V21.6961H30.0789V19.0785H26.8527V19.0688ZM9.67856 21.6865C9.67856 21.6575 9.6689 21.6285 9.6689 21.5996C9.6689 20.0348 10.9343 18.7694 12.4991 18.7694C14.0639 18.7694 15.3292 20.0348 15.3292 21.5996C15.3292 21.6285 15.3292 21.6575 15.3196 21.6865H17.9855C17.9855 21.6575 17.9855 21.6285 17.9855 21.5996C17.9855 18.5666 15.5224 16.1034 12.4894 16.1034C9.4564 16.1034 6.99329 18.5666 6.99329 21.5996C6.99329 21.6285 6.99329 21.6575 6.99329 21.6865H9.67856Z" fill="#EC255A"/>
<g id="Group">
<path id="Vector_2" d="M58.9777 13.0117H64.3386L56.0799 35.6433H50.8736L42.5859 13.0117H48.1497L53.6071 28.9495L58.9777 13.0117Z" fill="#102C57"/>
<path id="Vector_3" d="M67.5999 12.0742C69.1937 12.0742 70.4784 13.3589 70.4784 14.914C70.4784 16.4692 69.1937 17.7539 67.5999 17.7539C66.0737 17.7539 64.7891 16.4692 64.7891 14.914C64.7891 13.3589 66.0737 12.0742 67.5999 12.0742ZM65.2141 35.6428V19.7726H70.0727V35.6428H65.2141Z" fill="#102C57"/>
<path id="Vector_4" d="M72.7344 35.6438V12.5195H77.4964V21.2805C78.1629 20.2856 79.9112 19.3969 82.0845 19.3969C86.6727 19.3969 89.4642 22.9032 89.4642 27.6652C89.4642 32.5238 86.3346 36.0012 81.901 36.0012C79.7953 36.0012 78.1725 35.0739 77.4191 33.8761V35.6727H72.7344V35.6438ZM81.022 23.7629C79.1384 23.7629 77.4094 25.0089 77.4094 27.6845C77.4094 30.3022 79.1384 31.6545 81.022 31.6545C82.9056 31.6545 84.5959 30.3505 84.5959 27.6845C84.5959 24.9993 82.9056 23.7629 81.022 23.7629Z" fill="#102C57"/>
<path id="Vector_5" d="M93.3655 12.0742C94.9593 12.0742 96.244 13.3589 96.244 14.914C96.244 16.4692 94.9593 17.7539 93.3655 17.7539C91.8394 17.7539 90.5547 16.4692 90.5547 14.914C90.5547 13.3589 91.8394 12.0742 93.3655 12.0742ZM90.97 35.6428V19.7726H95.8286V35.6428H90.97Z" fill="#102C57"/>
<path id="Vector_6" d="M101.548 29.375C103.345 29.375 104.832 30.8335 104.832 32.6302C104.832 34.3785 103.325 35.9143 101.548 35.9143C99.7515 35.9143 98.293 34.3881 98.293 32.6302C98.293 30.8529 99.7515 29.375 101.548 29.375Z" fill="#EC255A"/>
</g>
</g>
<defs>
<clipPath id="clip0_1891_20311">
<rect width="104.832" height="36" fill="white"/>
</clipPath>
</defs>
</svg>
