<svg width="57" height="64" viewBox="0 0 57 64" fill="none" xmlns="http://www.w3.org/2000/svg">
<g id="Frame" clip-path="url(#clip0_1883_20017)">
<g id="ZrE7NB.tif_1_">
<g id="Group">
<path id="Vector" d="M55.4456 34.8987C56.5047 34.9517 56.5047 34.9517 56.5047 36.0108C56.5047 38.0233 56.5047 40.0092 56.5047 42.0216C56.5047 43.0278 56.1605 43.372 55.1543 43.372C42.6562 43.372 30.1845 43.372 17.6864 43.372C16.6802 43.372 16.3359 43.0278 16.3359 42.0216C16.3359 38.2616 16.3359 34.5015 16.3359 30.715C16.3359 29.6559 16.3359 29.6559 17.3951 29.6029C17.4745 29.6029 17.5805 29.6294 17.6599 29.6294C18.3484 29.497 18.4807 29.8147 18.4807 30.4502C18.4278 32.4097 18.4807 34.3691 18.4543 36.3286C18.4543 36.8582 18.5867 37.0435 19.1427 37.0435C23.0087 37.017 26.9011 37.0435 30.7671 37.0435C32.2234 37.0435 32.1969 37.0435 32.2234 35.5872C32.2234 35.0046 32.0116 34.8987 31.5085 34.8987C29.3637 34.9252 27.1924 34.9252 25.0476 34.8987C24.1738 34.8987 23.856 34.581 23.7766 33.7601C23.6707 32.6215 22.8763 31.8536 21.7112 31.7477C20.9433 31.6683 20.6256 31.324 20.5991 30.5561C20.5991 29.7088 20.5991 28.835 20.5991 27.9877C20.5991 26.3724 20.5991 26.3989 22.2408 26.4519C22.6115 26.4784 22.7439 26.5843 22.7174 26.955C22.6909 27.7494 22.7174 28.5437 22.7174 29.3381C22.7174 29.6294 22.7968 29.8147 23.1146 29.9206C24.3326 30.3443 25.1535 31.1916 25.6036 32.3832C25.7095 32.6745 25.8419 32.8069 26.1597 32.8069C28.0397 32.8069 29.8932 32.8069 31.7733 32.8069C32.1175 32.8069 32.2499 32.701 32.2234 32.3567C32.2234 29.1528 32.2234 25.9223 32.2234 22.7183C32.2234 22.3476 32.091 22.2152 31.7203 22.2417C31.0054 22.2682 30.2639 22.2417 29.549 22.2417C27.8808 22.2417 27.9073 22.2417 27.9867 20.5735C28.0132 20.2293 28.1191 20.1234 28.4634 20.1234C29.2048 20.1499 29.9727 20.1234 30.7141 20.1234C32.2764 20.1234 32.2764 20.1234 32.2234 18.5611C32.2234 18.5081 32.2234 18.4817 32.2234 18.4287C32.2499 18.111 32.1175 17.9786 31.7997 18.005C31.6144 18.0315 31.4025 18.005 31.2172 18.005C30.158 18.005 30.158 18.005 30.1051 16.9459C30.158 15.8867 30.158 15.8867 31.2172 15.8867C39.1609 15.8867 47.1047 15.8867 55.0484 15.8867C56.2135 15.8867 56.5312 16.2045 56.5312 17.3695C56.5312 22.1358 56.5312 26.9285 56.5312 31.6947C56.5312 32.7539 56.5312 32.7539 55.4721 32.8069C54.4129 32.7539 54.4129 32.7539 54.4129 31.6947C54.4129 27.3787 54.4129 23.0626 54.4129 18.7465C54.4129 18.1639 54.2805 17.9521 53.6715 17.9786C49.832 18.005 45.9661 18.005 42.1266 18.005C40.6702 18.005 40.6967 18.005 40.6702 19.4614C40.6702 20.0439 40.8556 20.1499 41.3852 20.1499C43.53 20.1234 45.6483 20.1499 47.7931 20.1499C48.7464 20.1499 49.0641 20.4146 49.1435 21.3679C49.2495 22.4271 50.0703 23.2214 51.1295 23.3273C51.9768 23.4068 52.2946 23.7245 52.2946 24.5719C52.2946 26.5578 52.2946 28.5437 52.2946 30.5032C52.2946 31.3505 51.9768 31.6947 51.1295 31.7742C50.0438 31.8801 49.223 32.6745 49.1435 33.7866C49.0641 34.6339 48.7199 34.9252 47.8726 34.9517C45.9925 34.9517 44.086 34.9517 42.206 34.9517C40.6702 34.9517 40.6967 34.9517 40.6967 36.461C40.6967 36.9906 40.9085 37.07 41.3587 37.07C43.6359 37.0435 45.8866 37.07 48.1638 37.07C50.0438 37.07 51.9503 37.0435 53.8304 37.07C54.3335 37.07 54.5188 36.9111 54.4394 36.4345C54.4129 36.3021 54.4394 36.1697 54.4394 36.0373C54.3864 34.9517 54.3864 34.9517 55.4456 34.8987ZM34.3152 29.5764C34.3152 33.2835 34.3152 36.9641 34.3152 40.6712C34.3152 41.0948 34.3947 41.3067 34.8978 41.2802C35.9305 41.2537 36.9632 41.2537 37.9958 41.2802C38.393 41.2802 38.5784 41.2007 38.5784 40.7506C38.5519 33.3629 38.5519 25.9488 38.5784 18.5611C38.5784 18.111 38.4195 18.005 37.9958 18.0315C37.0161 18.058 36.0099 18.0845 35.0302 18.0315C34.4212 18.005 34.3152 18.2169 34.3152 18.7729C34.3152 22.3476 34.3152 25.9488 34.3152 29.5764ZM40.6438 27.4846C40.6438 29.0733 40.6438 30.6621 40.6438 32.2243C40.6438 32.648 40.7232 32.8069 41.1998 32.8069C43.0269 32.7804 44.8539 32.7804 46.681 32.8069C46.9987 32.8069 47.1841 32.7274 47.3165 32.3832C47.7402 31.2181 48.561 30.3708 49.7526 29.9471C50.1233 29.8147 50.2027 29.6294 50.2027 29.2851C50.1762 28.1201 50.1762 26.955 50.2027 25.7899C50.2027 25.4457 50.0968 25.2603 49.7526 25.1279C48.614 24.7043 47.7931 23.9099 47.343 22.7448C47.2106 22.3741 46.9987 22.2417 46.628 22.2417C44.8539 22.2682 43.0534 22.2682 41.2793 22.2417C40.7497 22.2417 40.6702 22.4271 40.6702 22.8772C40.6702 24.413 40.6438 25.9488 40.6438 27.4846ZM25.2859 41.2802C27.1129 41.2802 28.94 41.2802 30.7671 41.2802C32.1969 41.2802 32.1704 41.2802 32.1969 39.7974C32.1969 39.2678 32.038 39.1354 31.5349 39.1354C27.669 39.1619 23.7766 39.1354 19.9106 39.1354C18.4278 39.1354 18.4543 39.1354 18.4543 40.6447C18.4543 41.1478 18.6131 41.2802 19.0898 41.2537C21.1551 41.2537 23.2205 41.2802 25.2859 41.2802ZM47.5018 41.2802C49.3289 41.2802 51.156 41.2802 52.983 41.2802C54.3864 41.2802 54.3599 41.2802 54.3864 39.8503C54.3864 39.2942 54.254 39.1354 53.698 39.1354C49.832 39.1619 45.9925 39.1354 42.1266 39.1354C40.5908 39.1354 40.6173 39.1354 40.6173 40.6447C40.6173 41.0948 40.7497 41.2537 41.1998 41.2537C43.3181 41.2537 45.41 41.2802 47.5018 41.2802Z" fill="#EC255A"/>
<path id="Vector_2" d="M41.0395 51.211C42.8136 50.2048 44.4818 49.225 46.15 48.2718C47.5004 47.5039 48.8508 46.683 50.2277 45.9416C52.8492 44.5382 55.8413 45.9681 56.4503 48.8543C56.7946 50.5225 56.0002 52.3496 54.4379 53.2499C50.5455 55.5271 46.6266 57.7778 42.7341 60.0285C40.96 61.0347 39.2389 62.1468 37.3059 62.8883C34.2608 64.0269 31.1363 64.2122 27.9588 63.815C24.9931 63.4443 22.0275 63.1531 19.0353 62.8088C18.2145 62.7294 17.4201 62.6764 16.5993 62.5176C15.5931 62.3322 14.6133 62.4911 13.6336 62.5705C10.1913 62.8353 6.74904 63.1266 3.30675 63.4443C2.75069 63.4973 2.53886 63.3384 2.59182 62.7823C2.6183 62.597 2.59182 62.4381 2.56534 62.2528C2.51238 61.2995 2.51238 61.326 3.43915 61.2466C7.22566 60.9288 11.0122 60.6375 14.8252 60.3198C16.1226 60.2139 17.4201 60.4787 18.6911 60.6111C21.7097 60.9288 24.7284 61.273 27.747 61.6173C29.3092 61.8026 30.898 61.9615 32.4867 61.8291C35.1611 61.5643 37.5707 60.5846 39.9009 59.2341C44.2964 56.6392 48.7449 54.1237 53.1404 51.5552C54.0143 51.0521 54.4909 50.1518 54.3585 49.331C54.1996 48.4042 53.5376 47.7422 52.5579 47.5569C52.0018 47.4509 51.5252 47.6363 51.0486 47.9011C47.5533 49.9135 44.0316 51.9259 40.5364 53.9913C39.3448 54.6797 38.1268 55.0769 36.7234 55.0504C33.44 54.9975 30.1566 55.024 26.8732 55.0504C26.3171 55.0504 26.1053 54.971 26.1317 54.3355C26.1847 52.9056 26.1317 52.9056 27.5616 52.9056C30.5273 52.9056 33.5194 52.9056 36.4851 52.9056C37.8885 52.9056 38.8417 52.0583 38.8417 50.8138C38.8417 49.5428 37.915 48.6955 36.5116 48.6955C34.4462 48.6955 32.3808 48.669 30.289 48.6955C29.4946 48.6955 28.7797 48.5631 28.0382 48.2718C26.6878 47.7157 25.3903 47.0273 23.9605 46.789C20.9683 46.2859 18.0291 46.3388 15.4607 48.1394C13.6336 49.4104 11.7271 49.9135 9.52934 49.7546C7.43749 49.6222 5.29269 49.7017 3.20084 49.7281C2.75069 49.7281 2.59182 49.6487 2.59182 49.1456C2.59182 47.5833 2.56534 47.5833 4.12761 47.5833C6.61664 47.5833 9.10568 47.5833 11.5947 47.5833C11.9919 47.5833 12.3097 47.4774 12.6539 47.2921C14.1897 46.3918 15.646 45.3326 17.3936 44.8825C20.4387 44.1146 23.5368 44.0351 26.4495 45.3061C28.5678 46.2329 30.7126 46.7095 33.0163 46.5507C34.2079 46.4712 35.3994 46.5242 36.591 46.5242C39.133 46.5242 40.9336 48.2718 41.013 50.7873C41.013 50.9197 41.013 50.9991 41.0395 51.211Z" fill="#EC255A"/>
<path id="Vector_3" d="M30.052 16.9475C30.105 18.0067 30.105 18.0067 31.1641 18.0067C31.3495 18.0067 31.5613 18.0067 31.7467 18.0067C32.0644 17.9802 32.1968 18.1126 32.1704 18.4303C32.1704 18.4833 32.1704 18.5098 32.1704 18.5627C32.2233 20.125 32.2233 20.125 30.661 20.125C29.9196 20.125 29.1517 20.125 28.4103 20.125C28.0661 20.125 27.9602 20.2309 27.9337 20.5752C27.8543 22.2433 27.8278 22.2433 29.496 22.2433C30.2109 22.2433 30.9523 22.2698 31.6672 22.2433C32.038 22.2433 32.1704 22.3493 32.1704 22.72C32.1704 25.9239 32.1704 29.1544 32.1704 32.3584C32.1704 32.7026 32.038 32.8085 31.7202 32.8085C29.8402 32.8085 27.9867 32.8085 26.1066 32.8085C25.7889 32.8085 25.6565 32.6761 25.5506 32.3848C25.1004 31.1933 24.2796 30.3459 23.0615 29.9223C22.7438 29.8164 22.6644 29.6575 22.6644 29.3397C22.6644 28.5454 22.6644 27.751 22.6644 26.9566C22.6644 26.5859 22.5584 26.4535 22.1877 26.4535C20.546 26.4006 20.546 26.3741 20.546 27.9893C20.546 28.8366 20.546 29.7104 20.546 30.5578C20.546 31.3257 20.8903 31.6699 21.6581 31.7493C22.8232 31.8553 23.6176 32.6232 23.7235 33.7618C23.803 34.6091 24.1472 34.9004 24.9945 34.9004C27.1393 34.9004 29.3106 34.9268 31.4554 34.9004C31.985 34.9004 32.1968 35.0063 32.1704 35.5888C32.1439 37.0452 32.1704 37.0452 30.714 37.0452C26.8481 37.0452 22.9556 37.0452 19.0897 37.0452C18.5336 37.0452 18.4012 36.8863 18.4012 36.3302C18.4277 34.3708 18.3747 32.4113 18.4277 30.4519C18.4542 29.8164 18.2953 29.4986 17.6068 29.631C17.5274 29.6575 17.4215 29.631 17.3421 29.6045C17.3421 28.969 17.3421 28.36 17.3421 27.7245C17.3421 27.5127 17.3685 27.2744 17.0508 27.2214C17.1037 27.1949 17.1567 27.142 17.2097 27.1155C20.4666 26.48 23.0086 24.7853 25.021 22.2698C26.3449 20.6281 27.1923 18.7216 27.6689 16.6562C27.7219 16.9475 27.9337 16.9475 28.172 16.9475C28.8075 16.9475 29.443 16.9475 30.052 16.9475Z" fill="white"/>
<path id="Vector_4" d="M27.6671 16.6818C27.1905 18.7472 26.3431 20.6272 25.0192 22.2954C23.0068 24.7844 20.4648 26.4791 17.2873 27.141C17.2343 27.141 17.1814 27.194 17.1284 27.247C14.3216 27.803 11.5413 27.6177 8.91989 26.4526C4.2066 24.3607 1.32038 20.7596 0.631925 15.6491C-0.374281 8.182 4.4714 1.64166 11.8855 0.211788C19.0349 -1.13865 26.3696 3.89238 27.7201 11.0947C28.0643 12.9747 28.0378 14.8283 27.6671 16.6818ZM14.2422 2.14476C7.91368 2.11828 2.61786 7.36115 2.59138 13.6632C2.5649 20.0711 7.72833 25.3669 14.0304 25.4199C20.5177 25.4729 25.8136 20.3094 25.84 13.9015C25.8665 7.44058 20.6766 2.19772 14.2422 2.14476Z" fill="#EC255A"/>
<path id="Vector_5" d="M55.4438 34.8998C54.3846 34.9527 54.3846 34.9527 54.3846 36.0119C54.3846 36.1443 54.3581 36.2767 54.3846 36.4091C54.464 36.8857 54.2787 37.0446 53.7756 37.0446C51.8956 37.0181 49.9891 37.0446 48.1091 37.0446C45.8319 37.0446 43.5811 37.0446 41.3039 37.0446C40.8538 37.0446 40.642 36.9651 40.642 36.4355C40.642 34.9262 40.642 34.9262 42.1513 34.9262C44.0313 34.9262 45.9378 34.9262 47.8178 34.9262C48.6916 34.9262 49.0094 34.6085 49.0888 33.7612C49.1947 32.649 49.9891 31.8547 51.0747 31.7487C51.9221 31.6693 52.2398 31.3516 52.2398 30.4777C52.2398 28.4918 52.2398 26.5059 52.2398 24.5464C52.2398 23.6991 51.9221 23.3813 51.0747 23.3019C50.0156 23.196 49.1947 22.4016 49.0888 21.3424C49.0094 20.4157 48.6916 20.1244 47.7384 20.1244C45.5935 20.1244 43.4752 20.0979 41.3304 20.1244C40.8008 20.1244 40.589 20.0185 40.6155 19.436C40.642 17.9796 40.6155 17.9796 42.0718 17.9796C45.9113 17.9796 49.7772 18.0061 53.6167 17.9531C54.2522 17.9531 54.3846 18.1385 54.3581 18.721C54.3317 23.0371 54.3581 27.3532 54.3581 31.6693C54.3581 32.7285 54.3581 32.7285 55.4173 32.7814C55.4438 33.5228 55.4438 34.2113 55.4438 34.8998Z" fill="white"/>
<path id="Vector_6" d="M40.6437 27.4875C40.6437 25.9517 40.6701 24.4159 40.6437 22.8801C40.6437 22.4035 40.7496 22.2182 41.2527 22.2447C43.0268 22.2711 44.8274 22.2711 46.6015 22.2447C46.9987 22.2447 47.184 22.3506 47.3164 22.7478C47.7401 23.8864 48.5874 24.7072 49.726 25.1309C50.0967 25.2633 50.1761 25.4486 50.1761 25.7929C50.1497 26.9579 50.1497 28.123 50.1761 29.2881C50.1761 29.6323 50.0702 29.8177 49.726 29.9501C48.5609 30.3737 47.7401 31.2211 47.2899 32.3861C47.1575 32.7304 46.9987 32.8098 46.6544 32.8098C44.8274 32.8098 43.0003 32.7833 41.1733 32.8098C40.7231 32.8098 40.6172 32.6509 40.6172 32.2273C40.6701 30.665 40.6437 29.0763 40.6437 27.4875Z" fill="white"/>
<path id="Vector_7" d="M25.2839 41.2824C23.2185 41.2824 21.1531 41.2559 19.0613 41.2824C18.5847 41.2824 18.4258 41.1765 18.4258 40.6734C18.4258 39.1641 18.4258 39.1641 19.8821 39.1641C23.7481 39.1641 27.6405 39.1641 31.5065 39.1641C32.0096 39.1641 32.1949 39.27 32.1684 39.826C32.142 41.2824 32.1684 41.3089 30.7386 41.3089C28.938 41.2824 27.1109 41.2824 25.2839 41.2824Z" fill="white"/>
<path id="Vector_8" d="M47.4987 41.2824C45.4069 41.2824 43.315 41.2824 41.2232 41.2824C40.7466 41.2824 40.6407 41.1235 40.6407 40.6734C40.6407 39.1641 40.6142 39.1641 42.15 39.1641C46.0159 39.1641 49.8554 39.1641 53.7213 39.1641C54.2774 39.1641 54.4363 39.3229 54.4098 39.879C54.3833 41.3089 54.4098 41.3089 53.0064 41.3089C51.1529 41.2824 49.3258 41.2824 47.4987 41.2824Z" fill="white"/>
<path id="Vector_9" d="M20.2292 9.1637C20.1232 9.42849 19.9908 9.50793 19.9114 9.58737C16.628 12.8973 13.3181 16.2071 10.0347 19.4906C9.79639 19.7289 9.66399 19.6759 9.45216 19.4641C8.18116 18.299 8.18116 18.3255 9.3992 17.1074C12.3384 14.1683 15.304 11.2291 18.2432 8.26341C18.6404 7.86622 18.8522 7.86622 19.223 8.28989C19.4877 8.60764 19.8849 8.87243 20.2292 9.1637Z" fill="#EC255A"/>
<path id="Vector_10" d="M12.894 9.32029C12.894 11.0944 11.4642 12.4713 9.6636 12.4448C7.94245 12.4183 6.53906 11.015 6.53906 9.26734C6.53906 7.51972 7.96893 6.08984 9.74304 6.08984C11.5171 6.1428 12.9205 7.54619 12.894 9.32029ZM10.7757 9.32029C10.7757 8.73775 10.3521 8.26113 9.76951 8.23465C9.16049 8.20817 8.65739 8.71127 8.68387 9.29381C8.68387 9.87636 9.13402 10.3265 9.74304 10.3265C10.3256 10.353 10.7757 9.90283 10.7757 9.32029Z" fill="#EC255A"/>
<path id="Vector_11" d="M18.6913 15.0938C20.4654 15.0938 21.8953 16.5236 21.8953 18.2712C21.8953 19.9924 20.4654 21.4223 18.7443 21.4223C16.9966 21.4223 15.5403 19.9924 15.5668 18.2448C15.5403 16.4971 16.9437 15.1202 18.6913 15.0938ZM18.6648 19.3304C19.2209 19.3569 19.7505 18.8538 19.777 18.2448C19.8034 17.7152 19.3533 17.2386 18.7972 17.2121C18.1882 17.1856 17.6851 17.6357 17.6851 18.2448C17.6321 18.8273 18.0823 19.3039 18.6648 19.3304Z" fill="#EC255A"/>
<path id="Vector_12" d="M10.7746 9.32194C10.7746 9.90448 10.298 10.3546 9.71541 10.3546C9.13287 10.3546 8.68273 9.90448 8.65625 9.32194C8.65625 8.71292 9.15935 8.23629 9.74189 8.26277C10.3509 8.26277 10.8011 8.73939 10.7746 9.32194Z" fill="white"/>
<path id="Vector_13" d="M18.6625 19.3304C18.0799 19.3039 17.6562 18.8273 17.6562 18.2447C17.6827 17.6357 18.1594 17.1856 18.7684 17.212C19.3244 17.2385 19.7746 17.7152 19.7481 18.2447C19.7481 18.8273 19.2185 19.3569 18.6625 19.3304Z" fill="white"/>
</g>
</g>
</g>
<defs>
<clipPath id="clip0_1883_20017">
<rect width="56.0298" height="64" fill="white" transform="translate(0.5)"/>
</clipPath>
</defs>
</svg>
