<svg width="121" height="36" viewBox="0 0 121 36" fill="none" xmlns="http://www.w3.org/2000/svg">
<path d="M35.5892 12.377L21.3035 0.946585C19.7271 -0.315528 17.4838 -0.315528 15.9074 0.946585L1.6217 12.377C0.595336 13.1962 0 14.4369 0 15.749V31.6802C0 34.0663 1.93365 36 4.31976 36H32.8912C35.2773 36 37.2109 34.0663 37.2109 31.6802V15.749C37.2109 14.4369 36.6132 13.1962 35.5892 12.377ZM18.6055 31.273H4.72459V15.9443L18.6055 4.84009V31.273Z" fill="#EC255A"/>
<path d="M64.0407 4.38672H70.6648L60.4549 32.3338H54.0224L43.7852 4.38672H50.6556L57.3892 24.0674L64.0407 4.38672Z" fill="#102C57"/>
<path d="M74.6911 3.23438C76.6619 3.23438 78.2495 4.82197 78.2495 6.73803C78.2495 8.65409 76.6619 10.2417 74.6911 10.2417C72.8024 10.2417 71.2148 8.65409 71.2148 6.73803C71.2148 4.82197 72.8024 3.23438 74.6911 3.23438ZM71.7349 32.3311V12.7326H77.7295V32.3311H71.7349Z" fill="#102C57"/>
<path d="M81.0156 32.3345V3.78516H86.9007V14.5972C87.7218 13.3655 89.8843 12.2706 92.5667 12.2706C98.2328 12.2706 101.682 16.5954 101.682 22.4804C101.682 28.475 97.8222 32.7724 92.3478 32.7724C89.7474 32.7724 87.7492 31.6228 86.8186 30.1447V32.3618H81.0156V32.3345ZM91.2529 17.6629C88.9262 17.6629 86.7912 19.1958 86.7912 22.5078C86.7912 25.7377 88.9262 27.4075 91.2529 27.4075C93.5795 27.4075 95.6598 25.7925 95.6598 22.5078C95.6598 19.1958 93.5795 17.6629 91.2529 17.6629Z" fill="#102C57"/>
<path d="M106.496 3.23438C108.467 3.23438 110.054 4.82197 110.054 6.73803C110.054 8.65409 108.467 10.2417 106.496 10.2417C104.607 10.2417 103.02 8.65409 103.02 6.73803C103.02 4.82197 104.607 3.23438 106.496 3.23438ZM103.54 32.3311V12.7326H109.534V32.3311H103.54Z" fill="#102C57"/>
<path d="M116.598 24.582C118.815 24.582 120.649 26.3886 120.649 28.6058C120.649 30.7682 118.788 32.6569 116.598 32.6569C114.381 32.6569 112.574 30.7682 112.574 28.6058C112.574 26.416 114.381 24.582 116.598 24.582Z" fill="#EC255A"/>
</svg>
