<svg width="33" height="32" viewBox="0 0 33 32" fill="none" xmlns="http://www.w3.org/2000/svg">
<g id="Frame" clip-path="url(#clip0_1891_20327)">
<g id="qTO971.tif_1_">
<g id="Group">
<path id="Vector" d="M10.6402 31.9979C9.42359 31.9979 8.20569 32.0018 6.98907 31.9967C4.27839 31.9878 1.9775 29.949 1.61353 27.2562C1.53335 26.6644 1.57917 26.0726 1.56644 25.4821C1.56389 25.3345 1.52826 25.2314 1.41754 25.1245C0.841047 24.5722 0.549617 23.8901 0.548344 23.0896C0.545799 21.5866 0.547072 20.085 0.548344 18.582C0.548344 17.7701 0.833411 17.0752 1.42772 16.5216C1.55626 16.402 1.56771 16.2773 1.56517 16.1271C1.54862 14.9207 1.55244 13.7155 1.76115 12.5218C2.3211 9.31606 3.74389 6.55702 6.06769 4.27649C8.19551 2.18812 10.7255 0.811147 13.655 0.284283C18.8868 -0.657455 23.4466 0.73988 27.2313 4.48647C29.5628 6.795 30.9028 9.63167 31.3966 12.8692C31.5595 13.9395 31.5519 15.0199 31.5353 16.0991C31.5328 16.2887 31.5773 16.4236 31.7237 16.5662C32.2684 17.0981 32.5496 17.7586 32.5522 18.5222C32.5585 20.057 32.5598 21.5905 32.5522 23.1252C32.5458 24.6613 31.305 25.8996 29.7639 25.8983C29.1543 25.8983 28.5396 25.9657 27.9364 25.7812C26.7707 25.4236 25.9549 24.3546 25.9498 23.1342C25.9447 21.6108 25.9473 20.0862 25.9485 18.5629C25.9498 17.7637 26.2387 17.0828 26.8152 16.5267C26.8903 16.4542 26.9641 16.3944 26.9679 16.2671C27.0035 14.6229 26.9501 12.9863 26.3341 11.4312C24.8312 7.6362 22.0849 5.30476 18.0379 4.699C12.7464 3.9087 7.89263 7.16152 6.47875 12.322C6.12496 13.6124 6.11732 14.9321 6.1326 16.2556C6.13387 16.3816 6.20259 16.4414 6.27895 16.5165C6.86053 17.0828 7.15196 17.7713 7.15196 18.5833C7.15196 20.0748 7.15196 21.5676 7.15196 23.0591C7.15196 23.871 6.86181 24.5595 6.28404 25.1296C6.22677 25.1869 6.13514 25.2238 6.13769 25.3243C6.14659 25.7888 6.08296 26.2597 6.16696 26.7178C6.25095 27.1773 6.62255 27.4229 7.15451 27.4241C9.31287 27.4254 11.4725 27.4216 13.6309 27.428C14.0839 27.4292 14.5395 27.3809 14.9913 27.4776C16.1367 27.7232 16.9231 28.7948 16.7984 29.9528C16.675 31.0982 15.6976 31.9903 14.5446 31.9967C13.244 32.003 11.9421 31.9979 10.6402 31.9979ZM16.3072 1.51872C14.4632 1.53654 12.4613 1.93614 10.6211 2.9097C5.56374 5.58347 3.08722 9.82383 3.0834 15.5303C3.0834 15.7224 3.15085 15.753 3.31884 15.7466C3.65735 15.7339 3.99841 15.7211 4.33439 15.7491C4.59273 15.7708 4.62327 15.669 4.61691 15.4488C4.58891 14.5911 4.6449 13.7384 4.79889 12.8921C5.3003 10.1445 6.58692 7.82582 8.69947 6.00598C11.5641 3.53964 14.9022 2.55336 18.6246 3.24567C23.1819 4.09323 26.2463 6.79373 27.8498 11.1359C28.364 12.5281 28.532 13.9866 28.4849 15.4666C28.4785 15.6792 28.518 15.7631 28.7534 15.7479C29.1008 15.725 29.4521 15.7351 29.8008 15.7453C29.9573 15.7504 30.0158 15.7211 30.0184 15.5443C30.0375 14.2487 29.9229 12.9685 29.6124 11.7099C28.1374 5.74764 22.7046 1.51236 16.3072 1.51872ZM5.62737 20.8549C5.62737 20.0837 5.635 19.3112 5.62482 18.54C5.61591 17.821 5.07632 17.2865 4.35729 17.2687C4.01878 17.261 3.68026 17.261 3.34302 17.2687C2.62271 17.2852 2.0793 17.8197 2.07549 18.5387C2.06658 20.0608 2.06785 21.5828 2.07549 23.1049C2.0793 23.8214 2.62526 24.3597 3.34174 24.3762C3.65862 24.3839 3.97551 24.38 4.29366 24.3775C5.08523 24.3699 5.62355 23.8341 5.62737 23.0425C5.63118 22.3133 5.62737 21.5841 5.62737 20.8549ZM27.4744 20.8053C27.4744 21.5765 27.4655 22.3489 27.477 23.1202C27.4871 23.8201 28.028 24.3571 28.7267 24.3762C29.0754 24.3851 29.4241 24.3851 29.7728 24.3762C30.4727 24.3584 31.0199 23.8226 31.025 23.1227C31.0352 21.5905 31.0352 20.057 31.025 18.5247C31.0199 17.8235 30.4778 17.2903 29.7753 17.2687C29.4584 17.2597 29.1415 17.2636 28.8234 17.2661C28.0089 17.2725 27.477 17.8032 27.4731 18.6164C27.4706 19.3456 27.4731 20.0748 27.4744 20.8053ZM10.6122 30.4733C11.8823 30.4733 13.1524 30.4708 14.4212 30.4746C14.7559 30.4759 15.0231 30.3601 15.186 30.0623C15.4749 29.5329 15.0817 28.9513 14.4288 28.9513C11.9637 28.9475 9.4974 28.9526 7.03234 28.9487C5.86662 28.9462 4.90197 28.1432 4.66018 27.0029C4.59527 26.6975 4.61945 26.3921 4.61436 26.0866C4.61182 25.967 4.608 25.8919 4.44892 25.897C4.04677 25.9085 3.64463 25.9059 3.24248 25.8983C3.1114 25.8957 3.09358 25.9466 3.0834 26.0624C2.88233 28.4881 4.69199 30.4683 7.11888 30.4733C8.28459 30.4759 9.44904 30.4733 10.6122 30.4733Z" fill="#EC255A"/>
<path id="Vector_2" d="M16.5575 11.4261C18.6204 11.4261 20.6846 11.4261 22.7475 11.4261C23.38 11.4261 23.6638 11.7048 23.6638 12.3271C23.6638 16.0406 23.6638 19.7554 23.6638 23.4689C23.6638 24.0963 23.3813 24.3788 22.7551 24.3788C21.6021 24.3801 20.4479 24.3814 19.2949 24.3763C19.118 24.375 18.9691 24.4081 18.824 24.515C18.1355 25.0228 17.3898 25.4465 16.7293 25.9963C16.4442 26.233 16.0523 26.2127 15.7659 25.9747C15.0812 25.4071 14.3113 24.9604 13.5923 24.4424C13.4854 24.3648 13.3721 24.3814 13.2576 24.3814C12.2738 24.3801 11.2888 24.3814 10.3051 24.3801C9.74261 24.3788 9.43845 24.0797 9.43845 23.5236C9.43718 19.7783 9.43718 16.033 9.43845 12.2864C9.43845 11.7264 9.73879 11.4274 10.3013 11.4274C12.3871 11.4248 14.4729 11.4261 16.5575 11.4261ZM16.5384 16.1246C17.7868 16.1246 19.0365 16.1272 20.285 16.1233C20.7457 16.1221 21.0613 15.781 20.9862 15.3839C20.9226 15.0429 20.6591 14.8558 20.2315 14.8558C17.7868 14.8545 15.3421 14.8545 12.8974 14.8558C12.4049 14.8558 12.1122 15.0925 12.1084 15.4845C12.1046 15.879 12.3998 16.1233 12.8873 16.1246C14.1039 16.1259 15.3218 16.1246 16.5384 16.1246ZM16.5664 19.4271C15.318 19.4271 14.0682 19.4245 12.8198 19.4283C12.3566 19.4296 12.0422 19.7668 12.116 20.1652C12.1784 20.5062 12.4418 20.6959 12.8694 20.6959C15.3141 20.6971 17.7588 20.6971 20.2035 20.6959C20.696 20.6959 20.99 20.4604 20.9951 20.0685C21.0002 19.6676 20.6986 19.4271 20.187 19.4271C18.9793 19.4258 17.7728 19.4258 16.5664 19.4271Z" fill="#EC255A"/>
</g>
</g>
</g>
<defs>
<clipPath id="clip0_1891_20327">
<rect width="32.0102" height="32" fill="white" transform="translate(0.546875)"/>
</clipPath>
</defs>
</svg>
