<svg width="21" height="20" viewBox="0 0 21 20" fill="none" xmlns="http://www.w3.org/2000/svg">
<g id="heroicons-mini/w-what" clip-path="url(#clip0_1891_20568)">
<path id="Vector" fill-rule="evenodd" clip-rule="evenodd" d="M17.5499 2.90849C15.681 1.03401 13.1927 0 10.5441 0C5.08102 0 0.629817 4.44567 0.629817 9.90876C0.629817 11.6561 1.08323 13.3591 1.95135 14.8631L0.546875 20L5.79985 18.6232C7.24856 19.4139 8.87975 19.8286 10.5386 19.8286H10.5441C16.0072 19.8286 20.4529 15.3829 20.4529 9.91982C20.4529 7.27122 19.4244 4.78297 17.5499 2.90849Z" fill="white"/>
<path id="Vector_2" fill-rule="evenodd" clip-rule="evenodd" d="M10.5452 18.1568C9.06329 18.1568 7.61458 17.7587 6.34833 17.0066L6.04974 16.8297L2.92561 17.6425L3.75502 14.6013L3.56149 14.2917C2.73761 12.9812 2.30078 11.4661 2.30078 9.90684C2.30078 5.36717 5.99998 1.66797 10.5452 1.66797C12.7459 1.66797 14.8139 2.52503 16.3677 4.08434C17.9215 5.64364 18.7785 7.71165 18.7785 9.91237C18.7785 14.4576 15.0849 18.1512 10.5452 18.1568Z" fill="#40C351"/>
<path id="Vector_3" fill-rule="evenodd" clip-rule="evenodd" d="M15.0627 11.9879C14.8139 11.8662 13.5974 11.2635 13.3707 11.1806C13.144 11.0976 12.9781 11.0589 12.8122 11.3022C12.6463 11.551 12.1708 12.1095 12.027 12.2754C11.8833 12.4413 11.7395 12.4634 11.4907 12.3362C11.2418 12.2146 10.4456 11.9492 9.50007 11.1087C8.76466 10.4507 8.26701 9.64337 8.12324 9.39455C7.97947 9.14572 8.10665 9.01302 8.23383 8.89137C8.34442 8.78078 8.48265 8.60384 8.6043 8.46007C8.72595 8.31631 8.77018 8.21125 8.85313 8.04537C8.93607 7.87948 8.89183 7.73572 8.83101 7.61407C8.77018 7.49242 8.27253 6.27041 8.06795 5.77276C7.86889 5.2917 7.6643 5.35806 7.50947 5.347C7.36571 5.34147 7.19982 5.33594 7.03394 5.33594C6.86806 5.33594 6.60264 5.39676 6.37594 5.64559C6.14923 5.89441 5.50781 6.49159 5.50781 7.7136C5.50781 8.93561 6.39252 10.1078 6.5197 10.2737C6.64135 10.4396 8.26701 12.9389 10.7497 14.0116C11.3414 14.266 11.8003 14.4208 12.1597 14.5314C12.7514 14.7194 13.2933 14.6918 13.719 14.6309C14.1946 14.5591 15.1843 14.0338 15.3889 13.4532C15.5935 12.8726 15.5935 12.3804 15.5327 12.2754C15.4719 12.1703 15.306 12.1095 15.0627 11.9879Z" fill="white"/>
</g>
<defs>
<clipPath id="clip0_1891_20568">
<rect width="19.906" height="20" fill="white" transform="translate(0.546875)"/>
</clipPath>
</defs>
</svg>
